<svg fill="none" height="48" viewBox="0 0 48 48" width="48" xmlns="http://www.w3.org/2000/svg"><path d="m5.58613 16.6795.16118-.3283-.26418-.2531c-1.80992-1.7335-2.98313-4.3949-2.98313-7.39786 0-2.77327 1.00065-5.25545 2.57947-6.98435l6.81553 6.92646.2918.29656.3447-.23306c3.2729-2.21317 7.219-3.50561 11.4685-3.50561 4.0461 0 7.817 1.17166 10.9937 3.19401l.3342.21277.2836-.27675 6.074-5.9287c1.5801 1.65811 2.5792 4.03792 2.5792 6.69428 0 2.43145-.8372 4.63225-2.1919 6.25935l-.2171.2609.1623.2981c1.5826 2.9076 2.482 6.2411 2.482 9.786 0 11.3219-9.1782 20.5-20.5 20.5s-20.5-9.1781-20.5-20.5c0-3.2379.75033-6.2992 2.08613-9.0207zm7.41387 16.5207c4.1421 0 7.5-3.3578 7.5-7.5 0-4.1421-3.3579-7.5-7.5-7.5-4.14214 0-7.5 3.3579-7.5 7.5 0 4.1422 3.35786 7.5 7.5 7.5zm21 0c4.1421 0 7.5-3.3578 7.5-7.5 0-4.1421-3.3579-7.5-7.5-7.5s-7.5 3.3579-7.5 7.5c0 4.1422 3.3579 7.5 7.5 7.5z" fill="#ed3501" stroke="#ed3501"/></svg>